<svg viewBox="0 0 120 140" xmlns="http://www.w3.org/2000/svg">
    <!-- Graduation cap -->
    <rect x="28" y="24" width="64" height="10" rx="3" fill="#1e1b4b" />
    <polygon points="60,10 90,26 60,30 30,26" fill="#312e81" />
    <line x1="90" y1="26" x2="96" y2="46" stroke="#312e81" stroke-width="2" />
    <circle cx="96" cy="48" r="4" fill="#a78bfa" />
    <!-- Body -->
    <ellipse cx="60" cy="90" rx="34" ry="42" fill="#6C63FF" />
    <ellipse cx="60" cy="96" rx="20" ry="26" fill="#ede9fe" />
    <!-- Eyes -->
    <g>
        <circle cx="44" cy="72" r="11" fill="white" />
        <circle cx="76" cy="72" r="11" fill="white" />
        <circle cx="46" cy="73" r="6" fill="#1e1b4b" />
        <circle cx="78" cy="73" r="6" fill="#1e1b4b" />
        <circle cx="48" cy="70" r="2.5" fill="white" />
        <circle cx="80" cy="70" r="2.5" fill="white" />
    </g>
    <!-- Beak -->
    <polygon points="60,78 53,86 67,86" fill="#f59e0b" />
    <!-- Wings -->
    <ellipse cx="27" cy="98" rx="12" ry="20" fill="#5750d4" transform="rotate(-15,27,98)" />
    <g style="transform-origin: 88px 85px;">
        <ellipse cx="93" cy="98" rx="12" ry="20" fill="#5750d4" transform="rotate(15,93,98)" />
        <ellipse cx="97" cy="80" rx="8" ry="14" fill="#e6e5ff" transform="rotate(10,97,80)" />
    </g>
    <!-- Feet -->
    <ellipse cx="46" cy="130" rx="10" ry="5" fill="#5750d4" />
    <ellipse cx="74" cy="130" rx="10" ry="5" fill="#5750d4" />
</svg>
